<svg width="132" height="121" viewBox="0 0 132 121" fill="none" xmlns="http://www.w3.org/2000/svg">
<path d="M20.7693 0.728516V3.06007C20.7693 6.35168 20.2664 10.9843 19.2607 16.958C18.2854 22.9012 17.2644 28.4786 16.1976 33.6903C15.1309 38.8716 14.3995 42.2851 14.0032 43.9309C14.3995 45.5767 15.1309 49.0055 16.1976 54.2172C17.2644 59.3984 18.2854 64.9759 19.2607 70.9495C20.2664 76.8927 20.7693 81.5101 20.7693 84.8017V87.1333H16.1062V84.8017C16.1062 81.9368 15.6795 77.8832 14.8261 72.6411C13.9728 67.3684 13.0432 62.2633 12.0374 57.3259C11.0316 52.358 10.2697 48.6702 9.75158 46.2625H7.14572V87.1333H2.4826V0.728516H7.14572V41.5993H9.75158C10.2697 39.1611 11.0316 35.4733 12.0374 30.5359C13.0432 25.5985 13.9728 20.5087 14.8261 15.2665C15.6795 9.99379 16.1062 5.92499 16.1062 3.06007V0.728516H20.7693Z" fill="#CAC7C5"/>
<path d="M43.5363 0.728516H48.1994V71.1781C48.1994 75.7193 47.3156 79.5138 45.5478 82.5616C43.8106 85.6094 41.6467 87.1333 39.056 87.1333C36.435 87.1333 34.2558 85.6094 32.5185 82.5616C30.7813 79.5138 29.9127 75.7193 29.9127 71.1781V0.728516H34.5758V71.1781C34.5758 73.4335 34.8196 75.4145 35.3073 77.1213C35.8254 78.7976 36.4197 80.1081 37.0902 81.0529C37.7912 81.9978 38.4465 82.4702 39.056 82.4702C39.6656 82.4702 40.3056 81.9978 40.9762 81.0529C41.6771 80.1081 42.2715 78.7976 42.7591 77.1213C43.2772 75.4145 43.5363 73.4335 43.5363 71.1781V0.728516Z" fill="#CAC7C5"/>
<path d="M62.0059 41.2336C63.9869 40.5021 65.7699 38.9782 67.3548 36.6619C69.7625 32.8827 70.9664 28.4939 70.9664 23.4955C70.9664 18.4971 69.7625 14.1235 67.3548 10.3748C65.7699 8.02797 63.9869 6.50407 62.0059 5.80308V41.2336ZM68.7263 43.428C68.9396 44.1595 69.5796 47.1463 70.6464 52.3885C71.7436 57.6307 72.8408 63.4672 73.938 69.898C75.0657 76.3289 75.6295 81.2968 75.6295 84.8017V87.1333H70.9664V84.8017C70.9664 81.7844 70.494 77.4566 69.5492 71.8182C68.6043 66.1797 67.6138 60.8156 66.5776 55.7258C65.5413 50.636 64.8098 47.1616 64.3832 45.3024C63.6212 45.6072 62.8288 45.851 62.0059 46.0339V87.1333H57.3428V0.728516H59.6743C64.0936 0.728516 67.9491 3.07531 71.2407 7.7689C74.1666 12.3406 75.6295 17.5828 75.6295 23.4955C75.6295 29.4082 74.1666 34.6504 71.2407 39.2221C70.4178 40.4717 69.5187 41.5536 68.5434 42.468L68.7263 43.428Z" fill="#CAC7C5"/>
<path d="M91.1275 55.2229H96.6592C95.7754 44.769 94.861 34.8333 93.9162 25.4156C92.9409 34.8333 92.0114 44.769 91.1275 55.2229ZM96.2021 2.78577C96.3849 4.21823 97.025 10.1614 98.1222 20.6153C99.2194 31.0692 100.286 42.5289 101.322 54.9944C102.389 67.4598 102.968 77.3956 103.06 84.8017V87.1333H98.3965V84.8017C98.3965 79.0414 97.9393 70.7362 97.025 59.8861H90.7618C89.8779 70.7362 89.436 79.0414 89.436 84.8017V87.1333H84.7729V84.8017C84.7729 77.9747 85.3215 68.1913 86.4187 55.4515C87.5159 42.7118 88.5978 31.115 89.6646 20.661C90.7618 10.1767 91.4018 4.21823 91.5847 2.78577L91.8132 0.728516H96.0192L96.2021 2.78577Z" fill="#CAC7C5"/>
<path d="M130.49 0.728516V3.06007C130.49 6.35168 129.987 10.9843 128.981 16.958C128.006 22.9012 126.985 28.4786 125.918 33.6903C124.851 38.8716 124.12 42.2851 123.724 43.9309C124.12 45.5767 124.851 49.0055 125.918 54.2172C126.985 59.3984 128.006 64.9759 128.981 70.9495C129.987 76.8927 130.49 81.5101 130.49 84.8017V87.1333H125.827V84.8017C125.827 81.9368 125.4 77.8832 124.546 72.6411C123.693 67.3684 122.764 62.2633 121.758 57.3259C120.752 52.358 119.99 48.6702 119.472 46.2625H116.866V87.1333H112.203V0.728516H116.866V41.5993H119.472C119.99 39.1611 120.752 35.4733 121.758 30.5359C122.764 25.5985 123.693 20.5087 124.546 15.2665C125.4 9.99379 125.827 5.92499 125.827 3.06007V0.728516H130.49Z" fill="#CAC7C5"/>
<path d="M132 103.227H131.923V103.221C131.849 103.222 131.774 103.222 131.7 103.223C131.477 103.225 131.255 103.227 131.033 103.227H111.624C105.783 103.227 99.941 103.225 94.0998 103.223C92.1535 103.222 90.2072 103.222 88.261 103.221V103.227H67.753C61.9113 103.227 56.0696 103.225 50.2284 103.223C48.2821 103.222 46.3358 103.222 44.3896 103.221V103.227H24.129C18.2873 103.227 12.4456 103.225 6.60442 103.223C4.65809 103.222 2.71182 103.222 0.765625 103.221V117.828C0.798474 117.826 0.832992 117.826 0.867513 117.826C0.942083 117.827 1.01667 117.828 1.07449 117.796C1.85498 117.375 2.1318 116.623 2.18178 115.823C2.22407 115.144 2.4727 115.032 3.06864 115.187C3.6351 115.335 4.22463 115.333 4.73599 114.994C5.01025 114.812 5.2922 114.554 4.72317 114.339C4.39637 114.214 4.14518 113.976 3.93884 113.699C3.02379 112.477 2.58548 111.066 2.26252 109.488C2.41613 109.629 2.55873 109.766 2.69545 109.896C2.9785 110.167 3.23637 110.413 3.51463 110.632C4.64628 111.524 5.78689 111.601 6.94929 110.901C7.0739 110.556 7.35242 110.379 7.63117 110.202C7.7538 110.124 7.87647 110.046 7.9861 109.953L8.00276 109.901C8.18987 109.221 7.93569 108.868 7.24021 108.842C6.23545 108.804 5.52673 107.785 5.75229 106.629C5.76697 106.553 5.77819 106.475 5.78952 106.396C5.84249 106.026 5.89798 105.639 6.32131 105.444C7.93612 103.839 10.7338 103.905 12.4089 105.721C13.0279 104.828 13.8929 104.332 14.9541 104.18C15.6346 104.082 16.2101 104.359 16.4689 104.887C16.7611 105.484 16.6932 105.966 16.1947 106.492C13.8862 108.925 11.5278 111.308 9.1687 113.691C8.67655 114.188 8.18437 114.686 7.69261 115.183C7.47121 115.407 7.24915 115.631 7.02714 115.854C6.63229 116.251 6.23761 116.648 5.84713 117.049C5.83066 117.066 5.81005 117.085 5.78827 117.104C5.66601 117.213 5.50669 117.355 5.83303 117.447C7.30557 117.859 8.73839 117.905 10.0405 116.913C10.598 116.488 10.9235 115.893 11.258 115.172C11.2619 115.198 11.2657 115.225 11.2696 115.251C11.3939 116.104 11.5015 116.843 11.7924 117.536C12.5319 119.307 13.8994 120.217 15.7718 120.406C17.6954 120.601 19.2244 119.903 20.1958 118.218C21.1121 116.629 20.8981 114.162 18.0799 113.856C17.5818 113.802 17.3364 113.773 17.2586 113.874C17.183 113.972 17.2653 114.191 17.4276 114.628C17.812 115.664 17.475 116.351 16.4741 116.574C14.8336 116.94 13.6277 115.774 13.8814 114.068C14.1018 112.584 15.3091 111.41 16.9713 111.034C17.9607 110.809 18.7361 111.141 19.3371 111.915L19.3608 111.946C19.9407 112.693 19.9415 112.694 20.6636 112.023C20.8187 111.878 20.966 111.72 21.0993 111.555C21.958 110.491 21.7863 109.238 20.6802 108.432C20.365 108.202 20.0164 108.031 19.6024 107.872C20.976 106.915 21.6867 105.542 22.4214 104.123C22.5346 103.904 22.6485 103.684 22.7654 103.464C22.7984 103.531 22.8313 103.598 22.8641 103.665C23.662 105.286 24.4175 106.821 25.8553 107.876C24.8659 108.297 24.0354 108.813 23.8919 109.933C23.7561 111 24.3853 111.69 25.1735 112.272C25.1784 112.275 25.1835 112.279 25.1886 112.283C25.201 112.291 25.2135 112.3 25.2235 112.311C25.5246 112.624 25.722 112.641 25.9719 112.202C26.3923 111.463 27.0344 110.967 27.9315 110.958C29.313 110.944 30.9163 112.01 31.4123 113.301C31.775 114.245 31.7762 115.199 31.1111 116.028C30.5792 116.689 29.8231 116.729 29.0593 116.58C28.0648 116.387 27.6867 115.687 28.034 114.722C28.1054 114.525 28.1876 114.331 28.2733 114.129C28.3123 114.037 28.3519 113.944 28.3916 113.848C28.2786 113.848 28.1724 113.845 28.0709 113.842C27.8672 113.836 27.6826 113.831 27.5021 113.852C25.1966 114.122 24.1533 116.033 25.2196 118.066C26.9985 121.457 31.4148 120.775 32.9873 118.786C33.8204 117.731 34.0741 116.487 34.2625 115.086C34.6931 116.347 35.4377 117.143 36.5989 117.516C37.5229 117.812 38.4482 117.726 39.3799 117.534C39.922 117.422 39.8836 117.236 39.5465 116.906C38.6199 115.992 37.6972 115.074 36.7873 114.144C35.851 113.186 34.917 112.226 33.983 111.266C32.4023 109.641 30.8216 108.017 29.2297 106.403C28.7478 105.915 28.7709 105.434 29.0324 104.896C29.3015 104.338 29.8961 104.068 30.6049 104.182C31.6365 104.349 32.4811 104.842 33.1616 105.785C33.2084 105.725 33.2506 105.665 33.2912 105.609C33.3729 105.494 33.4476 105.389 33.5384 105.301C34.9456 103.916 37.7843 103.968 39.0723 105.398C39.6875 106.081 39.8438 107.164 39.4325 107.906C39.0582 108.583 38.47 108.804 37.4357 108.656C37.3934 108.65 37.3512 108.643 37.3101 108.632C37.0346 108.557 36.9859 108.656 37.0333 108.924C37.3371 110.652 39.4863 111.82 41.1011 111.154C41.8177 110.858 42.3479 110.335 42.9328 109.759C43.0373 109.656 43.1435 109.551 43.2529 109.446C42.994 110.773 42.6275 111.925 42.0379 112.997C41.7496 113.522 41.3946 114.006 40.8537 114.312C40.8112 114.336 40.7593 114.351 40.7074 114.366C40.5869 114.401 40.466 114.435 40.4616 114.582C40.4541 114.817 40.6652 114.935 40.8458 115.036L40.8589 115.044C41.4176 115.356 42.0161 115.3 42.6031 115.163C43.0606 115.056 43.29 115.104 43.2939 115.665C43.299 116.266 43.5041 116.842 43.8706 117.335C44.0475 117.573 44.2205 117.725 44.3922 117.79V117.826C44.421 117.824 44.4514 117.824 44.4819 117.824C44.5003 117.824 44.5187 117.824 44.537 117.823C44.7869 117.849 45.0368 117.696 45.297 117.359C45.6584 116.892 45.8468 116.347 45.8763 115.759C45.8878 115.519 45.9224 115.324 46.0185 115.21C46.1429 115.11 46.3261 115.101 46.585 115.158C46.5978 115.162 46.6094 115.165 46.6235 115.17C46.8272 115.245 47.0425 115.273 47.2604 115.274C47.4552 115.285 47.6474 115.269 47.8358 115.223C48.128 115.173 48.41 115.079 48.6112 114.83C48.7445 114.666 48.8329 114.546 48.5625 114.393C47.0297 113.523 46.6399 112.047 46.2503 110.571C46.1643 110.245 46.0783 109.92 45.9801 109.601C46.0576 109.666 46.1338 109.729 46.2081 109.791C46.2358 109.814 46.2631 109.837 46.2902 109.86L46.3133 109.882C46.6003 110.156 46.8617 110.406 47.1438 110.629C47.7256 111.087 48.31 111.328 48.8983 111.362C49.3289 111.418 49.739 111.335 50.2042 111.136C51.3115 110.663 52.0087 109.86 52.2086 108.596C52.1549 108.602 52.1098 108.606 52.0703 108.609C51.9995 108.616 51.9469 108.62 51.8959 108.632C51.1218 108.809 50.3811 108.796 49.8825 108.07C49.3725 107.328 49.4147 106.518 49.8697 105.778C50.1927 105.254 50.5989 104.9 51.0616 104.67C51.3089 104.556 51.5678 104.468 51.8331 104.405C52.2637 104.313 52.7238 104.29 53.1993 104.314C53.2192 104.315 53.2387 104.317 53.2582 104.319C53.2778 104.32 53.2973 104.322 53.3172 104.323C54.3117 104.441 55.287 104.902 56.038 105.716C56.0392 105.714 56.0403 105.713 56.0415 105.711C56.0455 105.706 56.0494 105.7 56.0534 105.694C56.0585 105.7 56.064 105.706 56.0694 105.712C56.0749 105.717 56.0803 105.723 56.0854 105.729C56.7531 104.784 57.631 104.297 58.6947 104.171C58.7601 104.163 58.8255 104.159 58.8895 104.156C59.4329 104.169 59.8789 104.435 60.0981 104.882C60.3903 105.479 60.3224 105.961 59.8238 106.486C57.5154 108.92 55.1569 111.303 52.7978 113.686C52.3057 114.183 51.8135 114.68 51.3218 115.178C51.1003 115.402 50.8782 115.626 50.6562 115.849C50.2614 116.246 49.8667 116.643 49.4763 117.044C49.4598 117.061 49.4392 117.079 49.4174 117.099C49.2952 117.208 49.1358 117.35 49.4622 117.441C49.4929 117.45 49.5237 117.458 49.5544 117.466C49.6134 117.489 49.6877 117.509 49.7774 117.527C49.8069 117.534 49.8351 117.539 49.8646 117.544C50.572 117.708 51.2679 117.772 51.942 117.661C51.9485 117.66 51.9549 117.659 51.9613 117.658C51.9741 117.657 51.9869 117.655 51.9997 117.653C53.3992 117.422 54.354 116.651 54.8884 115.181L54.8962 115.234C55.021 116.092 55.129 116.834 55.4203 117.531C56.1598 119.302 57.5272 120.212 59.3996 120.401C59.6418 120.425 59.8776 120.435 60.1058 120.431C61.5514 120.419 62.7664 119.814 63.7006 118.521C64.5413 117.357 64.5772 116.074 63.9813 115.145C63.6058 114.485 62.8843 113.98 61.7078 113.852C61.2096 113.798 60.9643 113.769 60.8864 113.87C60.8109 113.968 60.8932 114.188 61.0554 114.625C61.4399 115.66 61.1028 116.347 60.1019 116.57C59.638 116.674 59.2087 116.655 58.837 116.535C58.0783 116.271 57.5926 115.578 57.5464 114.589C57.4721 112.99 58.6448 111.582 60.4621 111.087C60.8183 110.99 61.1541 110.954 61.4668 110.981C62.0576 111.058 62.5523 111.381 62.965 111.913L62.995 111.951C63.1473 112.147 63.2583 112.289 63.3546 112.382L63.37 112.397C63.5174 112.534 63.6289 112.548 63.7942 112.445C63.8711 112.407 63.9557 112.352 64.0531 112.282C65.8691 110.951 65.7217 109.037 63.7083 108.044C63.6164 107.999 63.5236 107.955 63.4174 107.905C63.3874 107.891 63.3563 107.877 63.3238 107.862C64.8227 106.771 65.5691 105.212 66.348 103.584L66.4009 103.473C66.4325 103.537 66.4639 103.601 66.4952 103.665C67.2923 105.284 68.0479 106.819 69.4857 107.873C68.4963 108.295 67.6659 108.81 67.5223 109.93C67.3865 110.998 68.0157 111.687 68.8039 112.269C68.8088 112.273 68.8139 112.276 68.819 112.28C68.8314 112.289 68.8439 112.298 68.8539 112.309C69.0141 112.474 69.1448 112.556 69.2691 112.532C69.4114 112.532 69.5447 112.419 69.6997 112.161C70.3841 111.021 71.3466 110.721 72.6115 111.144C72.8204 111.213 73.0203 111.296 73.2151 111.391C74.0341 111.818 74.7415 112.516 75.0427 113.298C75.4054 114.243 75.4067 115.196 74.7415 116.025C74.6467 116.143 74.5429 116.242 74.4352 116.323C74.134 116.516 73.7713 116.629 73.3959 116.648C73.169 116.652 72.9345 116.624 72.6987 116.579C72.5744 116.547 72.4526 116.503 72.3334 116.448C71.5875 116.105 71.4645 115.637 71.8144 114.485C71.8451 114.384 71.8695 114.28 71.8849 114.176V114.171C71.8988 114.138 71.9129 114.105 71.927 114.071C71.9584 113.997 71.9902 113.922 72.022 113.845C71.9091 113.845 71.8028 113.842 71.7013 113.839C71.4976 113.834 71.3131 113.829 71.1326 113.849C70.9109 113.875 70.7019 113.917 70.5046 113.971C69.9407 114.104 69.4767 114.375 69.1384 114.744C68.3451 115.547 68.1772 116.781 68.8501 118.063C69.8202 119.911 71.5734 120.548 73.2228 120.424C74.6275 120.384 75.8744 119.812 76.8395 118.55C77.5046 117.681 77.743 116.634 77.8776 115.538C77.9942 115.583 78.0852 115.651 78.1621 115.729C78.6106 116.621 79.2809 117.209 80.2293 117.513C81.1533 117.809 82.0786 117.723 83.0103 117.531C83.5524 117.42 83.514 117.234 83.1769 116.903C82.2504 115.989 81.3276 115.072 80.4177 114.141C79.9742 113.688 79.5308 113.233 79.0874 112.778C79.0502 112.729 79.0131 112.68 78.9708 112.637C78.4884 112.138 78.0065 111.639 77.5247 111.14C75.9925 109.554 74.4606 107.968 72.9152 106.394C72.5359 106.007 72.4411 105.624 72.6154 105.129C72.846 104.476 73.3805 104.119 74.1059 104.164C74.1481 104.168 74.1904 104.173 74.234 104.181C75.2657 104.347 76.1103 104.841 76.7908 105.784C76.7953 105.778 76.7994 105.773 76.8036 105.767C76.8078 105.761 76.8119 105.755 76.8164 105.75C76.8657 105.697 76.9126 105.644 76.9585 105.593C77.0568 105.483 77.1507 105.377 77.2547 105.283C77.9891 104.615 79.0118 104.285 80.0229 104.295C81.0546 104.323 82.0658 104.692 82.7015 105.397C83.3166 106.08 83.473 107.163 83.0616 107.905C82.7053 108.549 82.1542 108.779 81.211 108.673C81.187 108.664 81.1627 108.654 81.1384 108.643C81.0161 108.593 80.8924 108.541 80.7919 108.607C80.6484 108.607 80.6253 108.713 80.6612 108.923C80.9649 110.65 83.1141 111.819 84.7289 111.153C85.3236 110.907 85.7901 110.505 86.2656 110.048L86.2696 110.047C86.2733 110.046 86.2768 110.045 86.2797 110.044L86.3401 109.989C86.51 109.836 86.6823 109.68 86.8679 109.512C86.6103 110.812 86.2463 111.943 85.6671 112.996C85.3787 113.521 85.0237 114.004 84.4829 114.311C84.4404 114.334 84.3885 114.349 84.3365 114.364C84.216 114.399 84.0952 114.434 84.0907 114.581C84.0832 114.816 84.2943 114.934 84.4749 115.035L84.488 115.042C85.0468 115.355 85.6453 115.299 86.2322 115.161C86.6898 115.055 86.9192 115.103 86.923 115.664C86.9282 116.265 87.1332 116.84 87.4997 117.334C87.7612 117.686 88.0137 117.849 88.2687 117.825C88.3006 117.822 88.3341 117.823 88.3677 117.823C88.4432 117.825 88.519 117.826 88.5776 117.794C89.358 117.372 89.6349 116.62 89.6849 115.82C89.7143 115.354 89.8399 115.155 90.1091 115.126C90.1539 115.137 90.2001 115.15 90.2513 115.169C90.5115 115.264 90.7883 115.285 91.0651 115.269C91.4714 115.301 91.8764 115.232 92.2391 114.991C92.5133 114.809 92.7953 114.551 92.2262 114.336C91.8994 114.212 91.6482 113.973 91.4419 113.697C90.5858 112.553 90.1462 111.245 89.8297 109.789C91.3343 111.037 92.1763 111.482 93.067 111.36C93.5258 111.331 93.9871 111.178 94.4524 110.898C94.4703 110.849 94.4908 110.805 94.5139 110.763C94.7574 110.596 94.9701 110.406 95.1508 110.186C95.2674 110.112 95.3841 110.036 95.4879 109.949L95.5045 109.897C95.5315 109.799 95.5545 109.715 95.575 109.635C95.7301 109.333 95.8096 108.997 95.889 108.66C95.8672 108.648 95.8467 108.641 95.8262 108.633L95.8339 108.595C95.788 108.6 95.7502 108.603 95.716 108.606L95.6904 108.609C95.6225 108.609 95.5584 108.62 95.4943 108.637C95.3892 108.66 95.2841 108.681 95.1803 108.695C93.9359 108.821 93.1451 108.05 93.2323 106.776L93.2335 106.767C93.2395 106.72 93.2457 106.672 93.2541 106.624C93.2707 106.538 93.2836 106.448 93.2964 106.357C93.3733 106.049 93.5117 105.762 93.7039 105.506C93.7398 105.482 93.7795 105.459 93.8231 105.438C94.5075 104.758 95.4033 104.379 96.3376 104.305C96.4978 104.301 96.6605 104.305 96.8259 104.313C97.9678 104.372 98.943 104.838 99.7107 105.728C99.7152 105.721 99.7197 105.715 99.7242 105.709C99.7287 105.703 99.7332 105.697 99.7376 105.691C99.7479 105.701 99.7581 105.711 99.7671 105.721C99.7889 105.692 99.8107 105.662 99.8325 105.634C99.8453 105.648 99.8584 105.661 99.8716 105.674C99.8847 105.687 99.8978 105.7 99.9107 105.714C100.53 104.82 101.395 104.324 102.456 104.172C102.521 104.163 102.585 104.158 102.649 104.155C103.125 104.178 103.534 104.392 103.778 104.872C104.078 105.46 104.017 105.974 103.509 106.486C101.986 108.024 100.478 109.575 98.9692 111.126C98.1279 111.991 97.2865 112.856 96.4427 113.718C95.3841 114.801 94.3152 115.875 93.2361 116.939C92.8901 117.28 92.9337 117.43 93.404 117.523C93.8731 117.617 94.3409 117.691 94.8138 117.703C95.7634 117.761 96.6823 117.561 97.5423 116.904C98.0267 116.535 98.3356 116.037 98.6278 115.438C98.7008 116.064 98.7803 116.575 98.9379 117.07C99.5339 118.935 100.789 120.039 102.725 120.349C103.101 120.41 103.462 120.434 103.811 120.426C105.482 120.448 106.818 119.735 107.696 118.21C108.613 116.621 108.399 114.154 105.58 113.848L105.567 113.846C104.933 113.777 104.717 113.753 104.733 113.994C104.694 114.012 104.656 114.031 104.62 114.053C104.488 114.133 104.587 114.323 104.688 114.517C104.738 114.613 104.788 114.71 104.811 114.795C105.082 115.763 104.655 116.448 103.668 116.611C103.62 116.619 103.572 116.624 103.525 116.629C103.514 116.63 103.503 116.632 103.491 116.633C102.106 116.692 101.154 115.596 101.382 114.063C101.602 112.579 102.81 111.405 104.472 111.028C104.59 111.001 104.705 110.984 104.818 110.972C105.633 110.949 106.307 111.315 106.783 112.115C106.982 112.451 107.139 112.542 107.344 112.474C107.546 112.591 107.717 112.434 108.163 112.018C108.318 111.873 108.465 111.715 108.599 111.55C109.457 110.486 109.285 109.233 108.179 108.427C107.864 108.197 107.516 108.026 107.102 107.867C108.475 106.91 109.185 105.539 109.918 104.122C109.997 103.97 110.076 103.818 110.156 103.666C110.247 103.838 110.336 104.011 110.425 104.183C111.148 105.581 111.852 106.941 113.175 107.856C113.081 107.905 112.993 107.948 112.909 107.99C112.735 108.077 112.58 108.154 112.43 108.24C110.999 109.055 110.758 110.495 111.855 111.719C111.963 111.839 112.086 111.946 112.209 112.052C112.296 112.127 112.383 112.203 112.465 112.283C112.669 112.482 112.829 112.574 112.987 112.514C113.156 112.586 113.302 112.497 113.471 112.2C113.865 111.509 114.45 111.031 115.258 110.964C115.56 110.968 115.886 111.028 116.233 111.145C116.848 111.35 117.403 111.661 117.89 112.088C118.938 113.007 119.264 114.669 118.614 115.759C118.305 116.276 117.723 116.592 117.093 116.647C116.916 116.638 116.738 116.615 116.557 116.579C115.563 116.385 115.185 115.686 115.532 114.721C115.603 114.523 115.686 114.33 115.771 114.128C115.81 114.036 115.85 113.943 115.89 113.847C115.777 113.847 115.67 113.844 115.569 113.841C115.365 113.835 115.181 113.83 115 113.85C114.901 113.862 114.805 113.877 114.712 113.895C114.653 113.894 114.593 113.895 114.535 113.902C112.77 114.099 111.785 115.518 112.245 117.245C112.691 118.923 113.803 120.002 115.495 120.316C115.628 120.34 115.76 120.361 115.892 120.378C117.665 120.667 119.564 119.952 120.485 118.786C121.207 117.873 121.493 116.817 121.68 115.641C121.845 115.763 121.945 115.936 122.043 116.106C122.16 116.308 122.274 116.506 122.492 116.607C122.528 116.594 122.56 116.578 122.59 116.56C122.986 117.001 123.483 117.318 124.098 117.516C125.022 117.812 125.947 117.726 126.879 117.534C127.421 117.422 127.383 117.236 127.046 116.906C126.119 115.992 125.196 115.074 124.286 114.144C123.35 113.186 122.416 112.226 121.482 111.266C119.902 109.642 118.321 108.017 116.729 106.403C116.247 105.915 116.27 105.434 116.532 104.896C116.742 104.462 117.151 104.203 117.656 104.163C117.739 104.165 117.825 104.172 117.913 104.185C118.954 104.338 119.795 104.836 120.434 105.757C120.439 105.752 120.443 105.747 120.447 105.742C120.452 105.738 120.456 105.733 120.461 105.728C120.467 105.737 120.474 105.746 120.48 105.756C120.496 105.735 120.513 105.716 120.531 105.697C120.542 105.684 120.554 105.672 120.565 105.659C120.573 105.669 120.581 105.68 120.589 105.69C120.613 105.722 120.637 105.753 120.661 105.787C120.708 105.726 120.75 105.667 120.79 105.61C120.872 105.495 120.947 105.39 121.038 105.302C121.516 104.832 122.158 104.528 122.849 104.387C123.101 104.341 123.35 104.31 123.594 104.299C123.606 104.299 123.617 104.299 123.629 104.297C124.566 104.303 125.495 104.6 126.181 105.192C126.905 105.819 127.165 106.955 126.78 107.826C126.557 108.331 126.155 108.618 125.594 108.698C125.396 108.706 125.178 108.692 124.935 108.657C124.909 108.654 124.882 108.647 124.857 108.642C124.752 108.605 124.65 108.573 124.565 108.582C124.479 108.569 124.399 108.591 124.336 108.697C124.237 108.866 124.341 109.069 124.437 109.253C124.455 109.29 124.474 109.325 124.49 109.36C124.553 109.492 124.631 109.616 124.708 109.74C124.743 109.796 124.777 109.852 124.811 109.908C124.813 109.908 124.816 109.91 124.818 109.911C124.852 109.953 124.89 109.99 124.939 110.021C124.95 110.054 124.957 110.092 124.963 110.129L124.968 110.138C125.017 110.143 125.064 110.147 125.112 110.15C125.929 111.141 127.41 111.647 128.598 111.157C129.318 110.858 129.851 110.333 130.439 109.752L130.502 109.69C130.496 109.808 130.489 109.916 130.483 110.024C130.52 110.068 130.559 110.106 130.6 110.138C130.352 111.181 130.019 112.118 129.535 112.998C129.246 113.524 128.891 114.007 128.35 114.313C128.308 114.337 128.256 114.352 128.204 114.367C128.084 114.402 127.963 114.437 127.958 114.584C127.951 114.819 128.162 114.937 128.342 115.038L128.356 115.045C128.914 115.358 129.513 115.301 130.1 115.164C130.557 115.058 130.787 115.105 130.791 115.666C130.796 116.268 131.001 116.843 131.367 117.336C131.582 117.626 131.791 117.788 132 117.823V103.227Z" fill="#CAC7C5"/>
</svg>
