<svg width="376" height="253" viewBox="0 0 376 253" fill="none" xmlns="http://www.w3.org/2000/svg">
<path d="M53.7143 0V6.82698C53.7143 16.4651 52.2371 30.0298 49.2829 47.5212C46.4181 64.9233 43.419 81.2545 40.2857 96.5148C37.1524 111.686 35.0038 121.681 33.84 126.5C35.0038 131.319 37.1524 141.359 40.2857 156.619C43.419 171.79 46.4181 188.121 49.2829 205.613C52.2371 223.015 53.7143 236.535 53.7143 246.173V253H40.0171V246.173C40.0171 237.784 38.7638 225.915 36.2571 210.566C33.7505 195.127 31.02 180.179 28.0657 165.722C25.1114 151.175 22.8733 140.377 21.3514 133.327H13.6971V253H0V0H13.6971V119.673H21.3514C22.8733 112.534 25.1114 101.735 28.0657 87.2783C31.02 72.8212 33.7505 57.9178 36.2571 42.5683C38.7638 27.1295 40.0171 15.2157 40.0171 6.82698V0H53.7143Z" fill="#CAC7C5"/>
<path d="M120.589 0H134.286V206.282C134.286 219.579 131.69 230.69 126.497 239.614C121.394 248.538 115.038 253 107.429 253C99.7295 253 93.3286 248.538 88.2257 239.614C83.1229 230.69 80.5714 219.579 80.5714 206.282V0H94.2686V206.282C94.2686 212.886 94.9848 218.687 96.4171 223.684C97.939 228.592 99.6848 232.43 101.654 235.196C103.713 237.963 105.638 239.346 107.429 239.346C109.219 239.346 111.099 237.963 113.069 235.196C115.128 232.43 116.873 228.592 118.306 223.684C119.828 218.687 120.589 212.886 120.589 206.282V0Z" fill="#CAC7C5"/>
<path d="M174.84 118.602C180.659 116.46 185.896 111.998 190.551 105.216C197.624 94.1499 201.16 81.2991 201.16 66.6635C201.16 52.0279 197.624 39.2217 190.551 28.245C185.896 21.3734 180.659 16.9113 174.84 14.8587V118.602ZM194.58 125.028C195.207 127.169 197.087 135.915 200.22 151.265C203.443 166.614 206.666 183.704 209.889 202.534C213.201 221.364 214.857 235.91 214.857 246.173V253H201.16V246.173C201.16 237.338 199.772 224.666 196.997 208.156C194.222 191.646 191.312 175.94 188.269 161.037C185.225 146.133 183.076 135.96 181.823 130.516C179.585 131.408 177.257 132.122 174.84 132.658V253H161.143V0H167.991C180.972 0 192.297 6.87161 201.966 20.6148C210.56 34.0011 214.857 49.3506 214.857 66.6635C214.857 83.9764 210.56 99.3259 201.966 112.712C199.549 116.371 196.908 119.539 194.043 122.216L194.58 125.028Z" fill="#CAC7C5"/>
<path d="M260.38 159.564H276.629C274.032 128.954 271.347 99.8614 268.571 72.2857C265.707 99.8614 262.976 128.954 260.38 159.564ZM275.286 6.02381C275.823 10.2182 277.703 27.6203 280.926 58.2302C284.149 88.84 287.282 122.395 290.326 158.895C293.459 195.395 295.16 224.487 295.429 246.173V253H281.731V246.173C281.731 229.306 280.389 204.988 277.703 173.218H259.306C256.71 204.988 255.411 229.306 255.411 246.173V253H241.714V246.173C241.714 226.183 243.326 197.536 246.549 160.233C249.771 122.93 252.95 88.9739 256.083 58.364C259.306 27.6649 261.186 10.2182 261.723 6.02381L262.394 0H274.749L275.286 6.02381Z" fill="#CAC7C5"/>
<path d="M376 0V6.82698C376 16.4651 374.523 30.0298 371.569 47.5212C368.704 64.9233 365.705 81.2545 362.571 96.5148C359.438 111.686 357.29 121.681 356.126 126.5C357.29 131.319 359.438 141.359 362.571 156.619C365.705 171.79 368.704 188.121 371.569 205.613C374.523 223.015 376 236.535 376 246.173V253H362.303V246.173C362.303 237.784 361.05 225.915 358.543 210.566C356.036 195.127 353.306 180.179 350.351 165.722C347.397 151.175 345.159 140.377 343.637 133.327H335.983V253H322.286V0H335.983V119.673H343.637C345.159 112.534 347.397 101.735 350.351 87.2783C353.306 72.8212 356.036 57.9178 358.543 42.5683C361.05 27.1295 362.303 15.2157 362.303 6.82698V0H376Z" fill="#CAC7C5"/>
</svg>
