<svg width="1336" height="1000" viewBox="0 0 1336 1000" fill="none" xmlns="http://www.w3.org/2000/svg">
<path d="M902.594 631.276H966.545C956.327 510.481 945.757 395.673 934.834 286.852C923.559 395.673 912.812 510.481 902.594 631.276ZM961.26 25.3643C963.374 41.9163 970.773 110.59 983.458 231.385C996.142 352.18 1008.47 484.596 1020.45 628.635C1032.79 772.673 1039.48 887.481 1040.54 973.059V1000H986.629V973.059C986.629 906.498 981.344 810.532 970.773 685.158H898.366C888.148 810.532 883.039 906.498 883.039 973.059V1000H829.13V973.059C829.13 894.172 835.473 781.125 848.157 633.917C860.841 486.71 873.35 352.708 885.682 231.913C898.366 110.766 905.765 41.9163 907.88 25.3643L910.522 1.59266H959.146L961.26 25.3643Z" fill="#CAC7C5"/>
<path d="M1336 1.59266V28.5338C1336 66.5684 1330.19 120.098 1318.56 189.124C1307.28 257.798 1295.48 322.245 1283.15 382.467C1270.82 442.336 1262.36 481.779 1257.78 500.796C1262.36 519.814 1270.82 559.433 1283.15 619.654C1295.48 679.524 1307.28 743.971 1318.56 812.997C1330.19 881.67 1336 935.024 1336 973.059V1000H1282.09V973.059C1282.09 939.955 1277.16 893.116 1267.29 832.542C1257.43 771.616 1246.68 712.628 1235.05 655.576C1223.43 598.172 1214.62 555.559 1208.63 527.737H1178.5V1000H1124.59V1.59266H1178.5V473.855H1208.63C1214.62 445.681 1223.43 403.069 1235.05 346.017C1246.68 288.965 1257.43 230.152 1267.29 169.579C1277.16 108.653 1282.09 61.638 1282.09 28.5338V1.59266H1336Z" fill="#CAC7C5"/>
<path d="M709.08 416.803C736.915 373.134 750.833 322.421 750.833 264.665C750.833 206.909 736.915 156.372 709.08 113.055C690.758 85.9378 670.146 68.3292 647.243 60.2292V469.629C670.146 461.177 690.758 443.568 709.08 416.803ZM754.004 82.9443C787.829 135.77 804.742 196.344 804.742 264.665C804.742 332.986 787.829 393.56 754.004 446.386C724.407 490.055 688.82 516.292 647.243 525.096V1000H593.335V1.59259H620.289C671.379 1.59259 715.951 28.7098 754.004 82.9443Z" fill="#CAC7C5"/>
<path d="M211.407 0V26.9412C211.407 64.9757 205.593 118.506 193.966 187.532C182.691 256.205 170.887 320.653 158.555 380.874C146.223 440.743 137.767 480.186 133.186 499.204C137.767 518.221 146.223 557.84 158.555 618.062C170.887 677.931 182.691 742.378 193.966 811.404C205.593 880.078 211.407 933.432 211.407 971.466V998.407H157.498V971.466C157.498 938.362 152.565 891.523 142.7 830.95C132.834 770.024 122.088 711.035 110.46 653.983C98.8328 596.579 90.0242 553.966 84.0343 526.145H53.9088V998.407H0V0H53.9088V472.263H84.0343C90.0242 444.089 98.8328 401.476 110.46 344.424C122.088 287.372 132.834 228.56 142.7 167.986C152.565 107.06 157.498 60.0453 157.498 26.9412V0H211.407Z" fill="#CAC7C5"/>
<path d="M456.783 2.25198H510.692V29.1931C510.692 103.149 507.168 172.175 500.121 236.27C493.074 300.013 484.794 356.361 475.281 405.313C465.768 454.265 456.959 494.06 448.855 524.699C440.751 555.338 435.114 575.236 431.942 584.392L381.205 999.066H327.296L378.034 584.392C374.863 575.236 369.225 555.338 361.121 524.699C353.017 494.06 344.208 454.265 334.695 405.313C325.182 356.361 316.902 300.013 309.855 236.27C302.808 172.175 299.284 103.149 299.284 29.1931V2.25198H353.193V29.1931C353.193 92.2319 355.836 151.749 361.121 207.744C366.759 263.74 373.453 314.452 381.205 359.883C389.309 405.313 397.236 444.228 404.988 476.628C412.74 444.228 420.491 405.313 428.243 359.883C435.994 314.452 442.689 263.74 448.327 207.744C453.964 151.749 456.783 92.2319 456.783 29.1931V2.25198Z" fill="#CAC7C5"/>
</svg>
