<svg width="263" height="31" viewBox="0 0 263 31" fill="none" xmlns="http://www.w3.org/2000/svg">
<path d="M40.5387 -112.35V-109.567C40.5387 -105.639 39.5329 -100.111 37.5213 -92.9824C35.5708 -85.8902 33.5287 -79.2345 31.3953 -73.0152C29.2618 -66.8322 27.7989 -62.7588 27.0065 -60.7948C27.7989 -58.8308 29.2618 -54.7391 31.3953 -48.5198C33.5287 -42.3369 35.5708 -35.6811 37.5213 -28.5525C39.5329 -21.4603 40.5387 -15.9502 40.5387 -12.0222V-9.23992H31.2124V-12.0222C31.2124 -15.441 30.359 -20.2783 28.6523 -26.534C26.9455 -32.826 25.0864 -38.9181 23.0748 -44.81C21.0633 -50.7384 19.5394 -55.1392 18.5032 -58.0124H13.2914V-9.23992H3.96521V-112.35H13.2914V-63.5771H18.5032C19.5394 -66.4867 21.0633 -70.8875 23.0748 -76.7795C25.0864 -82.6715 26.9455 -88.7453 28.6523 -95.001C30.359 -101.293 31.2124 -106.148 31.2124 -109.567V-112.35H40.5387Z" fill="#CAC7C5"/>
<path d="M86.0726 -112.35H95.3988V-28.2798C95.3988 -22.8606 93.6311 -18.3325 90.0957 -14.6955C86.6212 -11.0584 82.2933 -9.23992 77.1121 -9.23992C71.8699 -9.23992 67.5116 -11.0584 64.0371 -14.6955C60.5626 -18.3325 58.8254 -22.8606 58.8254 -28.2798V-112.35H68.1516V-28.2798C68.1516 -25.5884 68.6393 -23.2243 69.6145 -21.1876C70.6508 -19.1872 71.8394 -17.6233 73.1805 -16.4958C74.5824 -15.3683 75.893 -14.8046 77.1121 -14.8046C78.3312 -14.8046 79.6113 -15.3683 80.9523 -16.4958C82.3543 -17.6233 83.5429 -19.1872 84.5182 -21.1876C85.5545 -23.2243 86.0726 -25.5884 86.0726 -28.2798V-112.35Z" fill="#CAC7C5"/>
<path d="M123.012 -64.0135C126.974 -64.8864 130.54 -66.7049 133.71 -69.4691C138.525 -73.979 140.933 -79.2163 140.933 -85.181C140.933 -91.1457 138.525 -96.3649 133.71 -100.838C130.54 -103.639 126.974 -105.457 123.012 -106.294V-64.0135ZM136.453 -61.3949C136.879 -60.522 138.159 -56.9577 140.293 -50.702C142.487 -44.4463 144.682 -37.4814 146.876 -29.8073C149.131 -22.1332 150.259 -16.2048 150.259 -12.0222V-9.23992H140.933V-12.0222C140.933 -15.6229 139.988 -20.7875 138.098 -27.516C136.209 -34.2445 134.228 -40.6456 132.155 -46.7195C130.083 -52.7933 128.62 -56.9395 127.766 -59.1581C126.242 -58.7944 124.658 -58.5034 123.012 -58.2852V-9.23992H113.686V-112.35H118.349C127.187 -112.35 134.898 -109.549 141.481 -103.948C147.333 -98.4925 150.259 -92.2369 150.259 -85.181C150.259 -78.1252 147.333 -71.8695 141.481 -66.414C139.836 -64.9228 138.037 -63.6316 136.087 -62.5405L136.453 -61.3949Z" fill="#CAC7C5"/>
<path d="M181.255 -47.3196H192.318C190.551 -59.7946 188.722 -71.6513 186.832 -82.8897C184.882 -71.6513 183.023 -59.7946 181.255 -47.3196ZM191.404 -109.895C191.77 -108.185 193.05 -101.093 195.244 -88.618C197.439 -76.143 199.572 -62.4678 201.645 -47.5924C203.778 -32.7169 204.936 -20.8602 205.119 -12.0222V-9.23992H195.793V-12.0222C195.793 -18.8962 194.879 -28.8071 193.05 -41.7549H180.524C178.756 -28.8071 177.872 -18.8962 177.872 -12.0222V-9.23992H168.546V-12.0222C168.546 -20.1692 169.643 -31.844 171.837 -47.0468C174.032 -62.2496 176.196 -76.0885 178.329 -88.5635C180.524 -101.075 181.804 -108.185 182.169 -109.895L182.626 -112.35H191.038L191.404 -109.895Z" fill="#CAC7C5"/>
<path d="M259.979 -112.35V-109.567C259.979 -105.639 258.974 -100.111 256.962 -92.9824C255.011 -85.8902 252.969 -79.2345 250.836 -73.0152C248.702 -66.8322 247.24 -62.7588 246.447 -60.7948C247.24 -58.8308 248.702 -54.7391 250.836 -48.5198C252.969 -42.3369 255.011 -35.6811 256.962 -28.5525C258.974 -21.4603 259.979 -15.9502 259.979 -12.0222V-9.23992H250.653V-12.0222C250.653 -15.441 249.8 -20.2783 248.093 -26.534C246.386 -32.826 244.527 -38.9181 242.516 -44.81C240.504 -50.7384 238.98 -55.1392 237.944 -58.0124H232.732V-9.23992H223.406V-112.35H232.732V-63.5771H237.944C238.98 -66.4867 240.504 -70.8875 242.516 -76.7795C244.527 -82.6715 246.386 -88.7453 248.093 -95.001C249.8 -101.293 250.653 -106.148 250.653 -109.567V-112.35H259.979Z" fill="#CAC7C5"/>
<path d="M263 9.96567H262.847V9.95802C262.698 9.95879 262.548 9.95966 262.399 9.96052C261.955 9.9631 261.511 9.96567 261.066 9.96567H222.249C210.565 9.96567 198.882 9.96309 187.2 9.96051C183.307 9.95965 179.414 9.95879 175.522 9.95802V9.96567H134.506C122.823 9.96567 111.139 9.96309 99.4569 9.96051C95.5642 9.95965 91.6717 9.95879 87.7793 9.95802V9.96567H47.258C35.5746 9.96567 23.8912 9.96309 12.2089 9.96051C8.31618 9.95965 4.42364 9.95879 0.53125 9.95802V27.3897C0.596949 27.3863 0.665984 27.3867 0.735026 27.3872C0.884167 27.3882 1.03334 27.3891 1.14898 27.3515C2.70995 26.8483 3.2636 25.9506 3.36356 24.9963C3.44815 24.1857 3.9454 24.0526 5.13728 24.2377C6.27021 24.4136 7.44927 24.412 8.47198 24.0067C9.0205 23.7896 9.5844 23.4822 8.44635 23.2252C7.79273 23.0769 7.29035 22.7924 6.87768 22.4621C5.04757 21.0031 4.17096 19.3192 3.52504 17.4366C3.83226 17.6055 4.11746 17.768 4.39091 17.9238C4.95701 18.2465 5.47274 18.5404 6.02927 18.8023C8.29255 19.8668 10.5738 19.9585 12.8986 19.1235C13.1478 18.7114 13.7048 18.4999 14.2623 18.2883C14.5076 18.1952 14.7529 18.1021 14.9722 17.9918L15.0055 17.9291C15.3797 17.1185 14.8714 16.6974 13.4804 16.6658C11.4709 16.6199 10.0535 15.4041 10.5046 14.0246C10.5339 13.9346 10.5564 13.8411 10.5791 13.7467C10.685 13.3055 10.796 12.8433 11.6426 12.6115C14.8722 10.6952 20.4677 10.7747 23.8177 12.9418C25.0557 11.8758 26.7859 11.284 28.9082 11.102C30.2692 10.9857 31.4201 11.3161 31.9379 11.9462C32.5223 12.6589 32.3864 13.2339 31.3894 13.861C26.7725 16.765 22.0556 19.6083 17.3374 22.4524C16.3531 23.0458 15.3687 23.6391 14.3852 24.2331C13.9424 24.5006 13.4983 24.7671 13.0543 25.0336C12.2646 25.5075 11.4752 25.9811 10.6943 26.4598C10.6613 26.48 10.6201 26.5019 10.5765 26.5251C10.332 26.6553 10.0134 26.8249 10.6661 26.934C13.6112 27.4264 16.4768 27.4815 19.081 26.2977C20.196 25.79 20.847 25.0804 21.516 24.2193C21.5238 24.2511 21.5315 24.2826 21.5392 24.3141C21.7878 25.3321 22.003 26.2132 22.5848 27.041C24.0638 29.1546 26.7987 30.2404 30.5435 30.4652C34.3908 30.6977 37.4487 29.8657 39.3916 27.8546C41.2243 25.9582 40.7962 23.0142 35.1598 22.6487C34.1636 22.5843 33.6728 22.5502 33.5171 22.6705C33.366 22.7873 33.5306 23.0495 33.8551 23.5709C34.6241 24.8066 33.95 25.6263 31.9481 25.8925C28.6673 26.3298 26.2553 24.9381 26.7628 22.9026C27.2037 21.1316 29.6182 19.7307 32.9426 19.281C34.9214 19.0134 36.4721 19.4095 37.6743 20.3332L37.7217 20.3697C38.8813 21.2617 38.883 21.263 40.3272 20.4617C40.6373 20.2889 40.9321 20.1008 41.1986 19.9035C42.916 18.6341 42.5725 17.1384 40.3605 16.1764C39.7299 15.9026 39.0328 15.6977 38.2048 15.5081C40.952 14.3659 42.3734 12.7277 43.8428 11.0341C44.0693 10.7731 44.2969 10.5107 44.5308 10.2486C44.5968 10.3285 44.6626 10.4082 44.7282 10.4878C46.324 12.4221 47.8351 14.2538 50.7106 15.5127C48.7318 16.0158 47.0709 16.6306 46.7838 17.9673C46.5121 19.2412 47.7706 20.064 49.347 20.7584C49.3568 20.7629 49.367 20.7672 49.3772 20.7716C49.402 20.7821 49.427 20.7928 49.4469 20.8058C50.0493 21.179 50.444 21.1988 50.9438 20.6758C51.7846 19.7934 53.0687 19.2015 54.8629 19.1908C57.6261 19.174 60.8326 20.4464 61.8245 21.9865C62.5499 23.1136 62.5525 24.2514 61.2222 25.241C60.1585 26.0301 58.6462 26.0775 57.1185 25.9001C55.1295 25.6692 54.3734 24.8341 55.068 23.6825C55.2107 23.447 55.3753 23.2158 55.5466 22.9751C55.6245 22.8656 55.7038 22.7542 55.7831 22.6395C55.5573 22.6395 55.3448 22.6359 55.1418 22.6326C54.7343 22.6257 54.3653 22.6196 54.0043 22.6441C49.3931 22.9668 47.3067 25.2471 49.4393 27.6726C52.997 31.7193 61.8297 30.9057 64.9747 28.5321C66.6408 27.2735 67.1483 25.7885 67.525 24.1169C68.3863 25.6218 69.8755 26.5715 72.1977 27.0165C74.0458 27.3698 75.8964 27.2673 77.7598 27.0379C78.844 26.9049 78.7672 26.6831 78.093 26.2886C76.2399 25.1981 74.3944 24.1031 72.5745 22.9928C70.7019 21.8499 68.8339 20.7043 66.9659 19.5587C63.8045 17.6198 60.6431 15.681 57.4594 13.7554C56.4957 13.1727 56.5418 12.5992 57.0647 11.9569C57.603 11.2916 58.7923 10.9689 60.2097 11.105C62.2731 11.3039 63.9622 11.8927 65.3233 13.0183C65.4168 12.9457 65.5013 12.8751 65.5823 12.8072C65.7457 12.6706 65.8953 12.5455 66.0769 12.4402C68.8912 10.7869 74.5687 10.8496 77.1447 12.5564C78.375 13.3716 78.6877 14.6639 77.8649 15.5494C77.1165 16.3569 75.94 16.6199 73.8715 16.444C73.7869 16.4364 73.7023 16.4288 73.6203 16.415C73.0692 16.3263 72.9718 16.444 73.0666 16.7637C73.6741 18.8253 77.9726 20.22 81.2022 19.4248C82.6353 19.0718 83.6958 18.448 84.8657 17.7599C85.0746 17.6369 85.2871 17.512 85.5057 17.3861C84.988 18.9706 84.2549 20.3455 83.0759 21.624C82.4991 22.2511 81.7891 22.8276 80.7075 23.1931C80.6225 23.2217 80.5187 23.2396 80.4147 23.2575C80.1737 23.299 79.9321 23.3406 79.9231 23.5158C79.9081 23.7965 80.3304 23.9373 80.6915 24.0577L80.7177 24.0664C81.8353 24.4396 83.0323 24.3723 84.2062 24.2086C85.1213 24.0817 85.5801 24.1383 85.5878 24.8081C85.598 25.5254 86.0081 26.2121 86.7412 26.8009C87.0949 27.0854 87.4409 27.2658 87.7844 27.3438V27.3866C87.8421 27.3838 87.9027 27.3839 87.9639 27.384C88.0006 27.3841 88.0375 27.3842 88.0741 27.3836C88.5739 27.4142 89.0737 27.2322 89.594 26.8299C90.3168 26.2717 90.6936 25.6218 90.7526 24.9198C90.7756 24.6338 90.8448 24.4013 91.0371 24.2652C91.2857 24.1459 91.6522 24.1352 92.17 24.2025C92.1956 24.2071 92.2187 24.2117 92.2469 24.2178C92.6545 24.3065 93.0851 24.3401 93.5208 24.3417C93.9104 24.3539 94.2949 24.3356 94.6717 24.2805C95.2561 24.2209 95.82 24.1092 96.2224 23.811C96.489 23.6152 96.6658 23.473 96.125 23.2895C93.0593 22.2521 92.2798 20.4902 91.5006 18.7292C91.3286 18.3405 91.1567 17.952 90.9602 17.5712C91.1153 17.6492 91.2676 17.7248 91.4163 17.7986C91.4715 17.826 91.5263 17.8532 91.5805 17.8801L91.6266 17.9065C92.2005 18.2341 92.7234 18.5326 93.2876 18.7977C94.4512 19.3453 95.62 19.6328 96.7965 19.6725C97.6578 19.7398 98.478 19.6404 99.4084 19.4034C101.623 18.839 103.017 17.8801 103.417 16.3722C103.31 16.3793 103.22 16.384 103.141 16.3882C102.999 16.3957 102.894 16.4012 102.792 16.415C101.244 16.6261 99.7621 16.6107 98.7651 15.7451C97.7449 14.8596 97.8295 13.8931 98.7394 13.0091C99.3854 12.3836 100.198 11.9615 101.123 11.6877C101.618 11.5516 102.136 11.4461 102.666 11.3712C103.527 11.261 104.448 11.2335 105.399 11.2626C105.438 11.2641 105.477 11.266 105.516 11.2679C105.556 11.2698 105.595 11.2717 105.634 11.2733C107.623 11.414 109.574 11.9645 111.076 12.9357C111.078 12.9336 111.081 12.9316 111.083 12.9296C111.091 12.923 111.099 12.9168 111.107 12.9097C111.117 12.9166 111.128 12.9235 111.139 12.9303C111.15 12.9372 111.161 12.9441 111.171 12.951C112.506 11.8238 114.262 11.2427 116.389 11.0913C116.52 11.0821 116.651 11.0775 116.779 11.0745C117.866 11.0897 118.758 11.4063 119.196 11.9401C119.781 12.6528 119.645 13.2278 118.648 13.8548C114.031 16.7589 109.314 19.6023 104.596 22.4464C103.611 23.0397 102.627 23.633 101.644 24.227C101.201 24.4945 100.756 24.7611 100.312 25.0276C99.5227 25.5014 98.7334 25.9751 97.9525 26.4537C97.9196 26.4739 97.8784 26.4958 97.8348 26.519C97.5903 26.6492 97.2717 26.8188 97.9243 26.9278C97.9859 26.9386 98.0474 26.9477 98.1089 26.9569C98.2268 26.9844 98.3755 27.0089 98.5549 27.0303C98.6138 27.0379 98.6702 27.0441 98.7292 27.0502C100.144 27.2459 101.536 27.3224 102.884 27.1893C102.897 27.1883 102.91 27.1875 102.923 27.1866C102.948 27.1849 102.974 27.1832 102.999 27.1802C105.798 26.9049 107.708 25.9842 108.777 24.23L108.792 24.2935C109.042 25.3173 109.258 26.2032 109.841 27.0349C111.32 29.1485 114.054 30.2343 117.799 30.4591C118.284 30.4882 118.755 30.5004 119.212 30.4958C122.103 30.4805 124.533 29.7587 126.401 28.2156C128.083 26.8269 128.154 25.296 126.963 24.1872C126.212 23.3996 124.769 22.797 122.416 22.6441C121.419 22.5797 120.929 22.5456 120.773 22.6659C120.622 22.7827 120.786 23.045 121.111 23.5663C121.88 24.802 121.206 25.6217 119.204 25.8879C118.276 26.0117 117.417 25.9888 116.674 25.8466C115.157 25.5315 114.185 24.7041 114.093 23.5235C113.944 21.6163 116.29 19.9356 119.924 19.3452C120.637 19.229 121.308 19.1862 121.934 19.2183C123.115 19.3101 124.105 19.6955 124.93 20.3302L124.99 20.3761C125.295 20.6093 125.517 20.7793 125.709 20.8899L125.74 20.9082C126.035 21.0719 126.258 21.0887 126.588 20.9648C126.742 20.9205 126.911 20.8547 127.106 20.7706C130.738 19.1831 130.443 16.8983 126.417 15.713C126.233 15.6593 126.047 15.6075 125.835 15.5482C125.775 15.5314 125.713 15.514 125.648 15.4958C128.645 14.1947 130.138 12.3335 131.696 10.3912L131.802 10.2593C131.865 10.3356 131.928 10.4117 131.99 10.4877C133.585 12.4199 135.096 14.2515 137.971 15.5096C135.993 16.0128 134.332 16.6276 134.045 17.9642C133.773 19.2382 135.031 20.061 136.608 20.7553C136.618 20.7598 136.628 20.7642 136.638 20.7685C136.663 20.7791 136.688 20.7898 136.708 20.8027C137.028 21 137.29 21.0979 137.538 21.0688C137.823 21.0688 138.089 20.9343 138.4 20.6269C139.768 19.2657 141.693 18.9079 144.223 19.4125C144.641 19.4951 145.041 19.5945 145.43 19.7077C147.068 20.217 148.483 21.0505 149.085 21.9834C149.811 23.1105 149.813 24.2484 148.483 25.2379C148.293 25.3786 148.086 25.4964 147.87 25.5927C147.268 25.8236 146.543 25.9582 145.792 25.9812C145.338 25.9857 144.869 25.9521 144.397 25.8986C144.149 25.8603 143.905 25.8083 143.667 25.7426C142.175 25.3327 141.929 24.7745 142.629 23.3996C142.69 23.2788 142.739 23.1549 142.77 23.031V23.0249C142.798 22.9854 142.826 22.9458 142.854 22.9059C142.917 22.8176 142.98 22.7281 143.044 22.6364C142.818 22.6364 142.606 22.6329 142.403 22.6295C141.995 22.6227 141.626 22.6165 141.265 22.641C140.822 22.6716 140.404 22.7221 140.009 22.7863C138.881 22.9454 137.954 23.2681 137.277 23.7085C135.69 24.6674 135.354 26.1402 136.7 27.6696C138.64 29.8749 142.147 30.635 145.446 30.4867C148.255 30.4393 150.749 29.7572 152.679 28.2507C154.009 27.2138 154.486 25.9643 154.755 24.6567C154.988 24.7103 155.17 24.7913 155.324 24.8846C156.221 25.949 157.562 26.651 159.459 27.0135C161.307 27.3668 163.157 27.2643 165.021 27.0349C166.105 26.9018 166.028 26.6801 165.354 26.2855C163.501 25.1951 161.655 24.1001 159.835 22.9897C158.949 22.4483 158.062 21.9054 157.175 21.3625C157.1 21.3044 157.026 21.2462 156.942 21.1942C155.977 20.5993 155.013 20.0039 154.049 19.4085C150.985 17.5154 147.921 15.6225 144.831 13.7447C144.072 13.2829 143.882 12.8256 144.231 12.2352C144.692 11.4553 145.761 11.0301 147.212 11.0836C147.296 11.0882 147.381 11.0943 147.468 11.1035C149.531 11.3023 151.221 11.8911 152.582 13.0167C152.591 13.0099 152.599 13.003 152.607 12.9961C152.616 12.9892 152.624 12.9823 152.633 12.9755C152.731 12.9122 152.825 12.8496 152.917 12.7883C153.114 12.6568 153.301 12.5314 153.509 12.4188C154.978 11.622 157.024 11.2274 159.046 11.2396C161.109 11.2733 163.132 11.7137 164.403 12.5549C165.633 13.37 165.946 14.6623 165.123 15.5478C164.411 16.3156 163.308 16.5909 161.422 16.4639C161.374 16.453 161.325 16.441 161.277 16.4289C161.032 16.3682 160.785 16.3068 160.584 16.3859C160.297 16.3859 160.251 16.5114 160.322 16.7622C160.93 18.8237 165.228 20.2185 168.458 19.4232C169.647 19.1296 170.58 18.6509 171.531 18.1049L171.539 18.1037C171.547 18.1026 171.554 18.1015 171.559 18.1003L171.68 18.0351C172.02 17.8514 172.365 17.6653 172.736 17.4657C172.221 19.0164 171.493 20.3669 170.334 21.6225C169.757 22.2495 169.047 22.8261 167.966 23.1916C167.881 23.2202 167.777 23.2381 167.673 23.256C167.432 23.2975 167.19 23.3391 167.181 23.5143C167.166 23.795 167.589 23.9358 167.95 24.0561L167.976 24.0649C169.094 24.438 170.291 24.3707 171.465 24.2071C172.38 24.0802 172.838 24.1367 172.846 24.8066C172.856 25.5239 173.266 26.2106 173.999 26.7994C174.522 27.2199 175.027 27.4142 175.537 27.3851C175.601 27.3823 175.668 27.3829 175.735 27.3836C175.886 27.3851 176.038 27.3865 176.155 27.3484C177.716 26.8452 178.27 25.9475 178.37 24.9932C178.429 24.4365 178.68 24.1994 179.218 24.1643C179.308 24.178 179.4 24.1933 179.503 24.2163C180.023 24.3295 180.577 24.3539 181.13 24.3356C181.943 24.3738 182.753 24.2912 183.478 24.0037C184.027 23.7865 184.591 23.4791 183.452 23.2222C182.799 23.0738 182.297 22.7894 181.884 22.459C180.172 21.0948 179.292 19.5334 178.659 17.796C181.669 19.2856 183.353 19.8163 185.134 19.671C186.052 19.6358 186.974 19.4538 187.905 19.1189C187.941 19.0608 187.982 19.0088 188.028 18.9583C188.515 18.7595 188.94 18.5316 189.302 18.2701C189.535 18.1814 189.768 18.0912 189.976 17.9872L190.009 17.9245C190.063 17.8083 190.109 17.7073 190.15 17.6125C190.46 17.2515 190.619 16.8509 190.778 16.4486C190.734 16.4349 190.693 16.4257 190.652 16.4165L190.668 16.3706C190.576 16.3767 190.5 16.3809 190.432 16.3846L190.381 16.3875C190.245 16.3875 190.117 16.4012 189.989 16.4211C189.778 16.4486 189.568 16.4731 189.361 16.4899C186.872 16.6413 185.29 15.7207 185.465 14.2005L185.467 14.1893C185.479 14.1332 185.491 14.0758 185.508 14.0185C185.541 13.916 185.567 13.809 185.593 13.7004C185.747 13.3333 186.023 12.9907 186.408 12.6849C186.48 12.6558 186.559 12.6283 186.646 12.6038C188.015 11.7917 189.807 11.3406 191.675 11.2519C191.996 11.2473 192.321 11.2519 192.652 11.261C194.936 11.3314 196.886 11.8881 198.421 12.9495C198.43 12.9418 198.439 12.9345 198.448 12.9273C198.457 12.92 198.466 12.9128 198.475 12.9051C198.496 12.9173 198.516 12.9296 198.534 12.9418C198.578 12.9066 198.621 12.8715 198.665 12.8378C198.691 12.8539 198.717 12.8695 198.743 12.8852C198.769 12.9009 198.796 12.9166 198.821 12.9326C200.059 11.8667 201.789 11.2748 203.912 11.0928C204.043 11.0821 204.171 11.076 204.299 11.0729C205.25 11.1005 206.067 11.3559 206.557 11.9278C207.157 12.6298 207.034 13.2431 206.019 13.8548C202.973 15.6898 199.956 17.5406 196.939 19.3913C195.256 20.4234 193.573 21.4556 191.885 22.485C189.768 23.7773 187.63 25.059 185.472 26.3283C184.78 26.7351 184.867 26.9141 185.808 27.0257C186.746 27.1374 187.682 27.2261 188.628 27.2398C190.527 27.3086 192.365 27.0701 194.085 26.287C195.053 25.8466 195.671 25.2517 196.256 24.5374C196.402 25.2838 196.561 25.894 196.876 26.4843C198.068 28.7095 200.577 30.0279 204.45 30.398C205.201 30.4698 205.924 30.4989 206.621 30.4897C209.963 30.5157 212.637 29.6654 214.393 27.8454C216.225 25.949 215.797 23.005 210.161 22.6395L210.134 22.6378C208.866 22.555 208.433 22.5268 208.467 22.8138C208.387 22.8353 208.313 22.8582 208.241 22.8842C207.976 22.9796 208.174 23.2062 208.376 23.4383C208.475 23.5524 208.576 23.6679 208.623 23.7697C209.164 24.9244 208.31 25.7426 206.337 25.9368C206.239 25.9467 206.145 25.9526 206.05 25.9585C206.028 25.9599 206.005 25.9613 205.983 25.9628C203.212 26.0332 201.308 24.7255 201.764 22.8964C202.205 21.1254 204.619 19.7245 207.944 19.2749C208.179 19.2428 208.41 19.2214 208.636 19.2076C210.266 19.1801 211.614 19.6175 212.565 20.5718C212.965 20.9725 213.278 21.0811 213.688 21C214.093 21.1392 214.434 20.9526 215.326 20.4556C215.636 20.2827 215.931 20.0946 216.197 19.8974C217.914 18.628 217.571 17.1323 215.359 16.1703C214.728 15.8965 214.031 15.6916 213.203 15.502C215.949 14.3609 217.369 12.7244 218.837 11.0333C218.994 10.8522 219.151 10.6705 219.311 10.4887C219.493 10.6947 219.672 10.901 219.85 11.1066C221.296 12.7739 222.703 14.3978 225.35 15.4897C225.162 15.5472 224.986 15.5995 224.819 15.6491C224.47 15.7527 224.161 15.8446 223.861 15.947C220.998 16.9197 220.516 18.6387 222.71 20.0992C222.926 20.2425 223.172 20.3695 223.418 20.4966C223.592 20.5865 223.767 20.6764 223.93 20.7721C224.338 21.0092 224.658 21.1193 224.973 21.0474C225.312 21.1331 225.604 21.0276 225.942 20.6727C226.729 19.8484 227.901 19.278 229.515 19.1984C230.12 19.203 230.771 19.2749 231.466 19.4141C232.696 19.6588 233.806 20.0304 234.78 20.5397C236.877 21.6362 237.528 23.6198 236.228 24.9198C235.611 25.5376 234.447 25.9139 233.186 25.9796C232.832 25.9689 232.476 25.9414 232.114 25.8986C230.125 25.6676 229.369 24.8326 230.064 23.681C230.207 23.4455 230.371 23.2143 230.543 22.9735C230.62 22.8641 230.7 22.7527 230.779 22.638C230.553 22.638 230.341 22.6344 230.138 22.631C229.73 22.6242 229.361 22.6181 229 22.6426C228.803 22.6563 228.611 22.6747 228.423 22.6961C228.306 22.6945 228.185 22.6961 228.07 22.7037C224.54 22.9393 222.569 24.6323 223.489 26.6938C224.381 28.6958 226.606 29.9835 229.99 30.3582C230.256 30.3873 230.52 30.4117 230.784 30.4316C234.329 30.7772 238.128 29.9238 239.971 28.5321C241.414 27.4432 241.985 26.183 242.359 24.7791C242.69 24.9244 242.89 25.131 243.086 25.3339C243.32 25.5751 243.549 25.8109 243.985 25.9322C244.056 25.9169 244.12 25.897 244.179 25.8756C244.971 26.4017 245.966 26.781 247.196 27.0165C249.044 27.3698 250.895 27.2673 252.758 27.0379C253.842 26.9049 253.766 26.6831 253.091 26.2886C251.238 25.1981 249.393 24.1031 247.573 22.9928C245.7 21.85 243.833 20.7044 241.965 19.5588C238.803 17.6199 235.642 15.681 232.458 13.7554C231.494 13.1727 231.54 12.5992 232.063 11.9569C232.484 11.4384 233.301 11.1295 234.311 11.0821C234.478 11.0852 234.649 11.0928 234.826 11.1081C236.908 11.2916 238.589 11.885 239.868 12.9846C239.877 12.9785 239.886 12.9728 239.895 12.967C239.904 12.9613 239.913 12.9556 239.922 12.9495C239.935 12.9602 239.947 12.9709 239.96 12.9831C239.993 12.9582 240.027 12.9356 240.061 12.9128C240.084 12.8978 240.107 12.8827 240.13 12.8669C240.146 12.8796 240.162 12.8922 240.178 12.9048C240.226 12.9423 240.274 12.9798 240.322 13.0198C240.415 12.9473 240.5 12.8766 240.581 12.8088C240.744 12.6721 240.894 12.547 241.075 12.4417C242.031 11.8804 243.316 11.518 244.697 11.3497C245.202 11.2947 245.699 11.258 246.189 11.2442C246.212 11.2442 246.235 11.2442 246.258 11.2427C248.132 11.2488 249.99 11.6036 251.361 12.3102C252.81 13.058 253.33 14.4146 252.561 15.453C252.115 16.0556 251.31 16.3982 250.187 16.4945C249.793 16.5037 249.357 16.4869 248.87 16.4456C248.819 16.441 248.765 16.4333 248.714 16.4272C248.503 16.3829 248.301 16.3446 248.129 16.3553C247.957 16.3401 247.799 16.3661 247.673 16.493C247.474 16.695 247.683 16.9365 247.874 17.1569C247.911 17.2001 247.948 17.2425 247.981 17.2837C248.106 17.441 248.261 17.5896 248.416 17.7379C248.485 17.8045 248.555 17.871 248.621 17.9382C248.626 17.9382 248.632 17.9398 248.637 17.9413C248.703 17.9918 248.78 18.0361 248.878 18.0728C248.901 18.1126 248.914 18.1569 248.926 18.2013L248.937 18.212C249.034 18.2181 249.129 18.2227 249.224 18.2273C250.859 19.4095 253.819 20.0136 256.195 19.4278C257.636 19.0719 258.701 18.445 259.878 17.7523L260.004 17.6782C259.992 17.8189 259.979 17.9474 259.966 18.0759C260.04 18.1294 260.117 18.1738 260.199 18.212C259.704 19.4569 259.038 20.5749 258.069 21.6255C257.492 22.2526 256.782 22.8291 255.701 23.1947C255.616 23.2232 255.512 23.2411 255.408 23.259C255.167 23.3005 254.925 23.3421 254.916 23.5173C254.901 23.798 255.324 23.9388 255.685 24.0592L255.711 24.0679C256.829 24.4411 258.026 24.3738 259.2 24.2102C260.115 24.0832 260.573 24.1398 260.581 24.8097C260.591 25.5269 261.001 26.2136 261.735 26.8024C262.165 27.1475 262.582 27.3414 263 27.3837V9.96567Z" fill="#CAC7C5"/>
</svg>
